<svg width="80" height="80" viewBox="0 0 77 79" fill="none" xmlns="http://www.w3.org/2000/svg">
<path d="M42.3177 18.4509L26.2319 22.7222C20.3972 24.2715 17.9154 28.5591 19.484 34.3602L24.7965 54.0079C26.3908 59.9041 30.6828 62.3116 36.5175 60.7623L52.6033 56.491C58.5321 54.9167 60.9385 50.7306 59.3442 44.8344L54.0317 25.1867C52.4632 19.3856 48.2465 16.8766 42.3177 18.4509Z" fill="url(#paint0_linear_1_31)"/>
<g filter="url(#filter0_f_1_31)">
<rect width="25.4455" height="21.7173" rx="10.8586" transform="matrix(-0.261015 -0.965335 0.966507 -0.256639 31.3102 53.9081)" fill="#8237FF" fill-opacity="0.5"/>
</g>
<g filter="url(#filter1_b_1_31)">
<path d="M57.4444 28.618H40.7911C34.7506 28.618 31.2335 32.123 31.2335 38.1287V58.4696C31.2335 64.5738 34.7506 68 40.7911 68H57.4444C63.5823 68 67 64.5738 67 58.4696V38.1287C67 32.123 63.5823 28.618 57.4444 28.618Z" fill="#BA90FF" fill-opacity="0.35"/>
<path d="M57.4444 28.118H40.7911C37.6749 28.118 35.1453 29.0238 33.3944 30.7669C31.6431 32.5102 30.7335 35.0286 30.7335 38.1287V58.4696C30.7335 61.6169 31.6421 64.1417 33.3952 65.879C35.1475 67.6156 37.6779 68.5 40.7911 68.5H57.4444C60.6044 68.5 63.1361 67.6166 64.8772 65.8776C66.6185 64.1386 67.5 61.6131 67.5 58.4696V38.1287C67.5 35.0325 66.6174 32.5133 64.878 30.7682C63.1383 29.0228 60.6074 28.118 57.4444 28.118Z" stroke="url(#paint1_linear_1_31)" stroke-linecap="round" stroke-linejoin="round"/>
</g>
<g filter="url(#filter2_bd_1_31)">
<mask id="path-5-inside-1_1_31" fill="white">
<path fill-rule="evenodd" clip-rule="evenodd" d="M41.3275 37.7751V37.7948C40.4711 37.7948 39.7776 38.484 39.7776 39.3307C39.7776 40.1774 40.4711 40.8666 41.3275 40.8666H47.2667C48.1231 40.8666 48.8186 40.1774 48.8186 39.309C48.8186 38.4643 48.1231 37.7751 47.2667 37.7751H41.3275ZM56.9058 49.7673H41.3275C40.4711 49.7673 39.7776 49.0781 39.7776 48.2314C39.7776 47.3846 40.4711 46.6935 41.3275 46.6935H56.9058C57.7602 46.6935 58.4557 47.3846 58.4557 48.2314C58.4557 49.0781 57.7602 49.7673 56.9058 49.7673ZM56.9059 58.7659H41.3277C40.7315 58.8447 40.1553 58.5493 39.8374 58.057C39.5195 57.5451 39.5195 56.8953 39.8374 56.403C40.1553 55.891 40.7315 55.6153 41.3277 55.6744H56.9059C57.6988 55.7532 58.2969 56.4227 58.2969 57.23C58.2969 58.0157 57.6988 58.6871 56.9059 58.7659Z"/>
</mask>
<path fill-rule="evenodd" clip-rule="evenodd" d="M41.3275 37.7751V37.7948C40.4711 37.7948 39.7776 38.484 39.7776 39.3307C39.7776 40.1774 40.4711 40.8666 41.3275 40.8666H47.2667C48.1231 40.8666 48.8186 40.1774 48.8186 39.309C48.8186 38.4643 48.1231 37.7751 47.2667 37.7751H41.3275ZM56.9058 49.7673H41.3275C40.4711 49.7673 39.7776 49.0781 39.7776 48.2314C39.7776 47.3846 40.4711 46.6935 41.3275 46.6935H56.9058C57.7602 46.6935 58.4557 47.3846 58.4557 48.2314C58.4557 49.0781 57.7602 49.7673 56.9058 49.7673ZM56.9059 58.7659H41.3277C40.7315 58.8447 40.1553 58.5493 39.8374 58.057C39.5195 57.5451 39.5195 56.8953 39.8374 56.403C40.1553 55.891 40.7315 55.6153 41.3277 55.6744H56.9059C57.6988 55.7532 58.2969 56.4227 58.2969 57.23C58.2969 58.0157 57.6988 58.6871 56.9059 58.7659Z" fill="url(#paint2_linear_1_31)"/>
<path d="M41.3275 37.7948V38.1948H41.7275V37.7948H41.3275ZM41.3275 37.7751V37.3751H40.9275V37.7751H41.3275ZM41.3277 58.7659V58.3659H41.3013L41.2753 58.3694L41.3277 58.7659ZM56.9059 58.7659V59.1659H56.9258L56.9455 59.1639L56.9059 58.7659ZM39.8374 58.057L39.4975 58.2681L39.5014 58.274L39.8374 58.057ZM39.8374 56.403L40.1735 56.62L40.1772 56.614L39.8374 56.403ZM41.3277 55.6744L41.2882 56.0725L41.3079 56.0744H41.3277V55.6744ZM56.9059 55.6744L56.9455 55.2764L56.9258 55.2744H56.9059V55.6744ZM41.7275 37.7948V37.7751H40.9275V37.7948H41.7275ZM40.1776 39.3307C40.1776 38.708 40.6889 38.1948 41.3275 38.1948V37.3948C40.2533 37.3948 39.3776 38.26 39.3776 39.3307H40.1776ZM41.3275 40.4666C40.6889 40.4666 40.1776 39.9534 40.1776 39.3307H39.3776C39.3776 40.4014 40.2533 41.2666 41.3275 41.2666V40.4666ZM47.2667 40.4666H41.3275V41.2666H47.2667V40.4666ZM48.4186 39.309C48.4186 39.9564 47.9023 40.4666 47.2667 40.4666V41.2666C48.3439 41.2666 49.2186 40.3984 49.2186 39.309H48.4186ZM47.2667 38.1751C47.9063 38.1751 48.4186 38.6893 48.4186 39.309H49.2186C49.2186 38.2393 48.3399 37.3751 47.2667 37.3751V38.1751ZM41.3275 38.1751H47.2667V37.3751H41.3275V38.1751ZM41.3275 50.1673H56.9058V49.3673H41.3275V50.1673ZM39.3776 48.2314C39.3776 49.3021 40.2533 50.1673 41.3275 50.1673V49.3673C40.6889 49.3673 40.1776 48.8541 40.1776 48.2314H39.3776ZM41.3275 46.2935C40.2526 46.2935 39.3776 47.1613 39.3776 48.2314H40.1776C40.1776 47.608 40.6896 47.0935 41.3275 47.0935V46.2935ZM56.9058 46.2935H41.3275V47.0935H56.9058V46.2935ZM58.8557 48.2314C58.8557 47.161 57.9784 46.2935 56.9058 46.2935V47.0935C57.542 47.0935 58.0557 47.6083 58.0557 48.2314H58.8557ZM56.9058 50.1673C57.9777 50.1673 58.8557 49.3024 58.8557 48.2314H58.0557C58.0557 48.8538 57.5427 49.3673 56.9058 49.3673V50.1673ZM41.3277 59.1659H56.9059V58.3659H41.3277V59.1659ZM39.5014 58.274C39.8964 58.8858 40.6187 59.2631 41.38 59.1625L41.2753 58.3694C40.8444 58.4263 40.4142 58.2128 40.1734 57.84L39.5014 58.274ZM39.5014 56.186C39.0965 56.8129 39.101 57.6295 39.4976 58.268L40.1772 57.846C39.9379 57.4607 39.9424 56.9777 40.1734 56.62L39.5014 56.186ZM41.3671 55.2764C40.6229 55.2026 39.8978 55.5474 39.4976 56.192L40.1772 56.614C40.4128 56.2347 40.8402 56.0281 41.2882 56.0725L41.3671 55.2764ZM56.9059 55.2744H41.3277V56.0744H56.9059V55.2744ZM58.6969 57.23C58.6969 56.2217 57.9475 55.3759 56.9455 55.2764L56.8664 56.0725C57.45 56.1304 57.8969 56.6236 57.8969 57.23H58.6969ZM56.9455 59.1639C57.9447 59.0647 58.6969 58.2195 58.6969 57.23H57.8969C57.8969 57.8119 57.4529 58.3096 56.8664 58.3679L56.9455 59.1639Z" fill="url(#paint3_linear_1_31)" mask="url(#path-5-inside-1_1_31)"/>
</g>
<defs>
<filter id="filter0_f_1_31" x="0.1241" y="-0.808838" width="76.7204" height="79.2969" filterUnits="userSpaceOnUse" color-interpolation-filters="sRGB">
<feFlood flood-opacity="0" result="BackgroundImageFix"/>
<feBlend mode="normal" in="SourceGraphic" in2="BackgroundImageFix" result="shape"/>
<feGaussianBlur stdDeviation="13.5" result="effect1_foregroundBlur_1_31"/>
</filter>
<filter id="filter1_b_1_31" x="6.23354" y="3.61798" width="85.7665" height="89.382" filterUnits="userSpaceOnUse" color-interpolation-filters="sRGB">
<feFlood flood-opacity="0" result="BackgroundImageFix"/>
<feGaussianBlur in="BackgroundImageFix" stdDeviation="12"/>
<feComposite in2="SourceAlpha" operator="in" result="effect1_backgroundBlur_1_31"/>
<feBlend mode="normal" in="SourceGraphic" in2="effect1_backgroundBlur_1_31" result="shape"/>
</filter>
<filter id="filter2_bd_1_31" x="24.5989" y="22.7751" width="48.8567" height="51.0035" filterUnits="userSpaceOnUse" color-interpolation-filters="sRGB">
<feFlood flood-opacity="0" result="BackgroundImageFix"/>
<feGaussianBlur in="BackgroundImageFix" stdDeviation="7.5"/>
<feComposite in2="SourceAlpha" operator="in" result="effect1_backgroundBlur_1_31"/>
<feColorMatrix in="SourceAlpha" type="matrix" values="0 0 0 0 0 0 0 0 0 0 0 0 0 0 0 0 0 0 127 0" result="hardAlpha"/>
<feOffset dx="5" dy="5"/>
<feGaussianBlur stdDeviation="5"/>
<feColorMatrix type="matrix" values="0 0 0 0 0.577356 0 0 0 0 0.359375 0 0 0 0 0.9375 0 0 0 0.5 0"/>
<feBlend mode="normal" in2="effect1_backgroundBlur_1_31" result="effect2_dropShadow_1_31"/>
<feBlend mode="normal" in="SourceGraphic" in2="effect2_dropShadow_1_31" result="shape"/>
</filter>
<linearGradient id="paint0_linear_1_31" x1="34.2739" y1="20.5868" x2="44.3869" y2="58.6727" gradientUnits="userSpaceOnUse">
<stop stop-color="#BC94FF"/>
<stop offset="1" stop-color="#9F66FF"/>
</linearGradient>
<linearGradient id="paint1_linear_1_31" x1="36.927" y1="33.206" x2="62.4488" y2="61.9134" gradientUnits="userSpaceOnUse">
<stop stop-color="white" stop-opacity="0.25"/>
<stop offset="1" stop-color="white" stop-opacity="0"/>
</linearGradient>
<linearGradient id="paint2_linear_1_31" x1="57.1187" y1="41.5679" x2="36.1098" y2="42.1829" gradientUnits="userSpaceOnUse">
<stop stop-color="white"/>
<stop offset="1" stop-color="white" stop-opacity="0.2"/>
</linearGradient>
<linearGradient id="paint3_linear_1_31" x1="42.6006" y1="40.222" x2="56.2295" y2="55.3765" gradientUnits="userSpaceOnUse">
<stop stop-color="white" stop-opacity="0.25"/>
<stop offset="1" stop-color="white" stop-opacity="0"/>
</linearGradient>
</defs>
</svg>
