<svg width="44" height="44" viewBox="0 0 44 44" fill="none" xmlns="http://www.w3.org/2000/svg">
<g clip-path="url(#clip0_1_93)">
<path d="M43.5187 22C43.5187 33.8937 33.8937 43.5187 22 43.5187C10.1062 43.5187 0.481247 33.8937 0.481247 22C0.481247 10.1062 10.1062 0.481247 22 0.481247C33.8937 0.481247 43.5187 10.1062 43.5187 22ZM22 1.7875C10.7937 1.7875 1.7875 10.7937 1.7875 22C1.7875 33.2062 10.8625 42.2125 22 42.2125C33.2062 42.2125 42.2125 33.1375 42.2125 22C42.2125 10.7937 33.2062 1.7875 22 1.7875Z" fill="url(#paint0_linear_1_93)"/>
<path d="M22 1.78751C10.7938 1.78751 1.78751 10.7938 1.78751 22C1.78751 33.2062 10.8625 42.2125 22 42.2125C33.2062 42.2125 42.2125 33.1375 42.2125 22C42.2125 10.7938 33.2062 1.78751 22 1.78751ZM22 40.9062C11.55 40.9062 3.09376 32.45 3.09376 22C3.09376 11.55 11.55 3.09376 22 3.09376C32.45 3.09376 40.9062 11.55 40.9062 22C40.9062 32.45 32.45 40.9062 22 40.9062Z" fill="url(#paint1_linear_1_93)"/>
<path opacity="0.4" d="M22 43.5187C33.8937 43.5187 43.5187 33.8937 43.5187 22C43.5187 10.1063 33.8937 0.48125 22 0.48125C10.1063 0.48125 0.48125 10.1063 0.48125 22C0.48125 33.8937 10.1063 43.5187 22 43.5187ZM22 0C34.1 0 44 9.9 44 22C44 34.1 34.1 44 22 44C9.9 44 0 34.1 0 22C0 9.9 9.9 0 22 0Z" fill="url(#paint2_linear_1_93)"/>
<path d="M1.5125 22.0687C1.5125 10.7937 10.6562 1.5125 22 1.5125C33.3437 1.5125 42.4875 10.725 42.4875 22.0687C42.4875 33.3437 33.3437 42.4875 22 42.4875C10.6562 42.4875 1.5125 33.3437 1.5125 22.0687ZM7.90625 7.90625C4.2625 11.55 1.99375 16.5687 1.99375 22.0687C1.99375 27.5687 4.2625 32.5875 7.8375 36.1625C11.4812 39.7375 16.5 42.0062 22 42.0062C27.5 42.0062 32.5187 39.8062 36.0937 36.1625C39.7375 32.5875 41.9375 27.5687 41.9375 22.0687C41.9375 16.5687 39.6687 11.55 36.0937 7.90625C32.5187 4.2625 27.5 1.99375 22 1.99375C16.5 1.99375 11.4812 4.2625 7.90625 7.90625Z" fill="white"/>
<path opacity="0.4" d="M22 40.975C16.9125 40.975 12.1687 38.9812 8.59374 35.4062C5.01874 31.8312 3.02499 27.0875 3.02499 22C3.02499 16.9125 5.01874 12.1687 8.59374 8.59374C12.1687 5.01874 16.9125 3.02499 22 3.02499C27.0875 3.02499 31.8312 5.01874 35.4062 8.59374C38.9812 12.1687 40.975 16.9125 40.975 22C40.975 27.0875 38.9812 31.8312 35.4062 35.4062C31.8312 38.9812 27.0875 40.975 22 40.975ZM22 40.425C26.8812 40.425 31.5562 38.5 34.9937 35.0625C38.5 31.5562 40.3562 26.95 40.3562 22.0687C40.3562 17.1875 38.4312 12.5125 34.9937 9.07499C31.4875 5.56874 26.8812 3.71249 22 3.71249C17.1187 3.71249 12.4437 5.63749 9.00625 9.07499C5.49999 12.4437 3.57499 17.1187 3.57499 22C3.57499 26.8812 5.49999 31.5562 8.93749 34.9937C12.4437 38.5 17.1187 40.425 22 40.425Z" fill="url(#paint3_linear_1_93)"/>
<path d="M38.7062 30.9375C38.3625 30.6625 25.0938 20.1438 25.0938 20.1438L22 2.47501C21.7938 2.54376 21.5188 2.75001 21.3813 3.02501L19.1813 20.2125L5.5 30.7313C5.5 30.7313 5.225 31.075 5.0875 31.2813C5.01875 31.4188 5.01875 31.625 5.01875 31.8313L21.9312 24.8875L38.8438 31.8313C38.9813 31.4875 38.8438 31.1438 38.7062 30.9375Z" fill="white"/>
<path d="M22.1375 22.55L22 25.7125L37.5375 31.9688C38.0875 32.2438 38.5 32.1062 38.9125 31.8313L22.3438 22.4813C22.275 22.4125 22.1375 22.4813 22.1375 22.55Z" fill="#565F64"/>
<path d="M22.1375 22.55C22.1375 22.55 23.0312 24.1313 24.0625 25.2313C25.5062 26.8125 27.4312 27.9125 27.4312 27.9125L37.5375 31.9688C38.0875 32.2438 38.5 32.1062 38.9125 31.8313L22.3437 22.4813C22.275 22.4125 22.1375 22.4813 22.1375 22.55Z" fill="url(#paint4_linear_1_93)"/>
<path d="M38.8437 31.2125C38.8437 31.1437 38.775 31.075 38.7062 30.9375L24.5437 20.5562L22.6187 21.7937C22.6187 21.7937 22.7562 21.8625 22.825 21.7937C23.0312 21.725 23.4437 21.6562 23.8562 21.7937C24.2 21.9312 38.8437 31.2812 38.8437 31.2125C38.8437 31.2812 38.8437 31.2812 38.8437 31.2125Z" fill="#A4AAAE" fill-opacity="0.6"/>
<path d="M38.3625 30.5938L25.1625 20.1438L24.5437 20.5563L38.7062 31.0063C38.6375 30.8688 38.5 30.7313 38.3625 30.5938Z" fill="#333E46"/>
<path d="M22.3437 21.5187L22.275 21.5875C22.275 21.5875 22.275 21.725 22.4125 21.6562C22.4812 21.5875 24.475 20.5562 25.1625 20.1437L22.7562 3.64375C22.6875 3.025 22.4125 2.75 21.9312 2.54375L22.2062 21.6562L22.3437 21.5187Z" fill="#565F64"/>
<path d="M21.175 3.64375V4.5375L19.6625 19.7312C19.6625 19.9375 19.7312 20.1437 19.9375 20.2812L20.8312 20.9687L21.45 4.19375L21.5187 2.8875C21.3125 3.025 21.2437 3.3 21.175 3.64375ZM20.35 21.2437L19.525 20.5562L5.56874 30.6625C5.56874 30.6625 5.15624 30.9375 5.08749 31.2125L5.56874 30.9375L20.2125 21.725C20.4875 21.5875 20.5562 21.45 20.35 21.2437Z" fill="#A4AAAE" fill-opacity="0.6"/>
<path d="M21.7938 22.55C21.7938 22.4813 21.725 22.4125 21.6563 22.4813L5.01875 31.9C5.43125 32.175 5.84375 32.2437 6.39375 32.0375L21.9313 25.7813L21.7938 22.55Z" fill="#565F64"/>
<path d="M22.275 21.5875C22.275 21.5875 22.275 21.6562 22.3437 21.6562H22.4125C22.4812 21.5875 24.475 20.5562 25.1625 20.1437L24.8875 18.15L22.7562 3.64374C22.7562 3.36874 22.6875 3.16249 22.55 3.02499C22.55 3.02499 23.5812 16.9125 23.5812 18.425C23.5812 20.4187 22.275 21.5875 22.275 21.5875Z" fill="url(#paint5_linear_1_93)"/>
<path d="M21.7938 22.55C21.7938 22.4813 21.725 22.4125 21.6563 22.4813L5.01875 31.9C5.43125 32.175 5.84375 32.2437 6.39375 32.0375L21.9313 25.7813L21.7938 22.55Z" fill="url(#paint6_linear_1_93)" fill-opacity="0.8"/>
<path opacity="0.8" d="M6.39375 31.9688L21.9312 25.7125L21.7937 22.6875C21.5187 23.5125 21.0375 24.4062 19.7312 25.0938C18.7687 25.6437 9.55625 30.1813 6.25625 31.7625C6.05 31.9 5.775 31.9687 5.6375 32.0375C5.9125 32.175 6.11875 32.1062 6.39375 31.9688Z" fill="url(#paint7_linear_1_93)"/>
<path d="M22.3437 21.5187L22.275 21.5875C22.275 21.5875 22.275 21.725 22.4125 21.6562C22.4812 21.5875 24.475 20.5562 25.1625 20.1437L22.7562 3.64375C22.6875 3.025 22.4125 2.75 21.9312 2.54375L22.2062 21.6562L22.3437 21.5187Z" fill="url(#paint8_linear_1_93)"/>
<path d="M22.3437 21.5187L22.275 21.5875C22.275 21.5875 22.275 21.725 22.4125 21.6562C22.4812 21.5875 24.475 20.5562 25.1625 20.1437L22.7562 3.64375C22.6875 3.025 22.4125 2.75 21.9312 2.54375L22.2062 21.6562L22.3437 21.5187Z" fill="url(#paint9_linear_1_93)"/>
<path d="M3.50625 30.525C3.025 29.425 0.274997 24.0625 3.3 13.75H2.13125C1.5125 15.8125 1.03125 17.05 0.756247 18.9062C0.756247 18.9062 0.618747 19.5938 0.549997 20.35C0.481247 21.1063 0.481247 21.5188 0.481247 22C0.481247 26.125 1.5125 28.5312 1.5125 28.5312C2.6125 31.9688 4.5375 35.0625 7.15 37.4C9.41875 39.3938 12.925 40.9062 15.8125 41.4562C15.3312 41.3875 7.08125 37.8813 3.50625 30.525Z" fill="url(#paint10_linear_1_93)"/>
<path d="M22.275 22.4125H21.6562C21.725 22.4125 21.7938 22.4125 21.7938 22.4812L21.9312 25.6437H22L22.1375 22.4812C22.1375 22.4125 22.2063 22.3437 22.275 22.4125Z" fill="url(#paint11_linear_1_93)"/>
<path d="M28.875 1.58125C36.0938 4.33125 42.9 11.8938 42.9 21.45C42.9 33 33.6875 42.4188 22 42.4188V43.5188C33.6875 43.5188 43.5187 33.8938 43.5187 22C43.5187 12.5125 37.4688 4.5375 28.875 1.58125Z" fill="url(#paint12_linear_1_93)"/>
<path d="M40.425 13.8875C35.6125 2.81876 24.75 2.20001 24.1312 2.13126H24.0625C32.3812 3.64376 37.675 9.07501 39.5312 14.7813V14.85C40.3562 17.05 40.7687 19.3875 40.8375 21.9313C40.9062 24.3375 40.3562 27.0188 39.325 29.4938C39.2562 29.8375 39.1875 30.25 39.1187 30.25H40.2187C43.5187 24.0625 42.075 17.8063 40.425 13.8875Z" fill="url(#paint13_linear_1_93)"/>
<path d="M1.5125 22.0687C1.5125 10.7937 10.6562 1.5125 22 1.5125C33.3437 1.5125 42.4875 10.725 42.4875 22.0687C42.4875 33.3437 33.3437 42.4875 22 42.4875C10.6562 42.4875 1.5125 33.3437 1.5125 22.0687ZM7.90625 7.90625C4.2625 11.55 1.99375 16.5687 1.99375 22.0687C1.99375 27.5687 4.2625 32.5875 7.8375 36.1625C11.4812 39.7375 16.5 42.0062 22 42.0062C27.5 42.0062 32.5187 39.8062 36.0937 36.1625C39.7375 32.5875 41.9375 27.5687 41.9375 22.0687C41.9375 16.5687 39.6687 11.55 36.0937 7.90625C32.5187 4.2625 27.5 1.99375 22 1.99375C16.5 1.99375 11.4812 4.2625 7.90625 7.90625Z" fill="#FBFBFB"/>
<path d="M5.43124 30.8L19.4562 20.6937C20.2125 21.1062 21.45 21.6562 21.5875 21.6562C21.725 21.725 21.725 21.5875 21.725 21.5875L20.0062 20.1437C19.8 20.0062 19.7312 19.8 19.7312 19.5937L21.3812 3.02499C21.3125 3.09374 21.3125 3.23124 21.2437 3.29999C21.175 3.43749 21.175 3.50624 21.175 3.64374L18.7687 20.2125L5.56874 30.5937C5.49999 30.6625 5.43124 30.7312 5.43124 30.8Z" fill="#333F47"/>
</g>
<defs>
<linearGradient id="paint0_linear_1_93" x1="5.49862" y1="8.17987" x2="38.5014" y2="35.8201" gradientUnits="userSpaceOnUse">
<stop stop-color="white"/>
<stop offset="0.1" stop-color="#CDD0D0"/>
<stop offset="0.2" stop-color="#A5ACAF"/>
<stop offset="0.3" stop-color="#98A0A4"/>
<stop offset="0.4" stop-color="#828A8F"/>
<stop offset="0.5" stop-color="#667075"/>
<stop offset="0.6" stop-color="#535C63"/>
<stop offset="0.7" stop-color="#475158"/>
<stop offset="0.8" stop-color="#434D54"/>
<stop offset="1" stop-color="#475157"/>
</linearGradient>
<linearGradient id="paint1_linear_1_93" x1="6.51132" y1="8.97807" x2="37.4488" y2="34.9656" gradientUnits="userSpaceOnUse">
<stop stop-color="#0B1F2A"/>
<stop offset="0.2" stop-color="#333F47"/>
<stop offset="0.5" stop-color="#81898D"/>
<stop offset="0.7" stop-color="#B3B8B8"/>
<stop offset="0.8" stop-color="#DEE0DD"/>
<stop offset="1" stop-color="#FBFBFB"/>
</linearGradient>
<linearGradient id="paint2_linear_1_93" x1="29.5192" y1="42.6683" x2="14.4629" y2="1.2815" gradientUnits="userSpaceOnUse">
<stop stop-color="#E1E3E1"/>
<stop offset="0.1" stop-color="#C1C5C4"/>
<stop offset="0.3" stop-color="#9BA1A2"/>
<stop offset="0.5" stop-color="#7D8487"/>
<stop offset="0.7" stop-color="#687074" stop-opacity="0"/>
<stop offset="0.8" stop-color="#5B6469" stop-opacity="0"/>
<stop offset="1" stop-color="#576065" stop-opacity="0"/>
</linearGradient>
<linearGradient id="paint3_linear_1_93" x1="12.5132" y1="5.56943" x2="31.4868" y2="38.4306" gradientUnits="userSpaceOnUse">
<stop stop-color="#E1E3E1"/>
<stop offset="0.1" stop-color="#C1C5C4"/>
<stop offset="0.3" stop-color="#9BA1A2"/>
<stop offset="0.5" stop-color="#7D8487"/>
<stop offset="0.7" stop-color="#687074" stop-opacity="0"/>
<stop offset="0.8" stop-color="#5B6469" stop-opacity="0"/>
<stop offset="1" stop-color="#576065" stop-opacity="0"/>
</linearGradient>
<linearGradient id="paint4_linear_1_93" x1="30.5855" y1="27.0827" x2="29.4167" y2="29.0077" gradientUnits="userSpaceOnUse">
<stop stop-color="#27343C"/>
<stop offset="1" stop-color="#00111E" stop-opacity="0"/>
</linearGradient>
<linearGradient id="paint5_linear_1_93" x1="27.2112" y1="20.0145" x2="25.2862" y2="16.9207" gradientUnits="userSpaceOnUse">
<stop offset="0.1" stop-color="#02131F"/>
<stop offset="0.9" stop-color="#02131F" stop-opacity="0"/>
</linearGradient>
<linearGradient id="paint6_linear_1_93" x1="21.9876" y1="24.981" x2="19.1001" y2="25.806" gradientUnits="userSpaceOnUse">
<stop offset="0.2" stop-color="#02131F"/>
<stop offset="0.9" stop-color="#02131F" stop-opacity="0"/>
</linearGradient>
<linearGradient id="paint7_linear_1_93" x1="14.2938" y1="28.809" x2="13.8813" y2="27.7777" gradientUnits="userSpaceOnUse">
<stop stop-color="#02131F"/>
<stop offset="0.1" stop-color="#02131F"/>
<stop offset="1" stop-color="#02131F" stop-opacity="0"/>
</linearGradient>
<linearGradient id="paint8_linear_1_93" x1="24.4764" y1="11.8346" x2="22.1389" y2="12.1096" gradientUnits="userSpaceOnUse">
<stop offset="0.3" stop-color="#02131F"/>
<stop offset="0.8" stop-color="#02131F" stop-opacity="0"/>
</linearGradient>
<linearGradient id="paint9_linear_1_93" x1="24.5492" y1="11.7954" x2="22.9673" y2="12.0017" gradientUnits="userSpaceOnUse">
<stop offset="0.4" stop-color="#27343C"/>
<stop offset="1" stop-color="#3B474E" stop-opacity="0"/>
</linearGradient>
<linearGradient id="paint10_linear_1_93" x1="-0.247503" y1="22.5713" x2="18.9337" y2="33.6401" gradientUnits="userSpaceOnUse">
<stop stop-color="#25323B" stop-opacity="0"/>
<stop offset="0.1" stop-color="#27343C"/>
</linearGradient>
<linearGradient id="paint11_linear_1_93" x1="21.9656" y1="25.7125" x2="21.9656" y2="22.4125" gradientUnits="userSpaceOnUse">
<stop offset="0.3" stop-color="#A5ABAF"/>
<stop offset="1" stop-color="#A5ABAF" stop-opacity="0"/>
</linearGradient>
<linearGradient id="paint12_linear_1_93" x1="32.7594" y1="1.58125" x2="32.7594" y2="43.5188" gradientUnits="userSpaceOnUse">
<stop stop-color="#6B7378"/>
<stop offset="0.2" stop-color="#333F47"/>
<stop offset="0.5" stop-color="#27343C"/>
<stop offset="0.8" stop-color="#333F47"/>
<stop offset="1" stop-color="#434D54"/>
</linearGradient>
<linearGradient id="paint13_linear_1_93" x1="39.3862" y1="5.56394" x2="30.1049" y2="19.1764" gradientUnits="userSpaceOnUse">
<stop offset="0.7" stop-color="#49545B"/>
<stop offset="0.8" stop-color="white" stop-opacity="0"/>
</linearGradient>
<clipPath id="clip0_1_93">
<rect width="44" height="44" fill="white"/>
</clipPath>
</defs>
</svg>
