<svg width="29" height="29" viewBox="0 0 29 29" fill="none" xmlns="http://www.w3.org/2000/svg">
<g clip-path="url(#clip0_1_136)">
<path d="M14.5924 3.62317H14.7538C16.2436 3.62861 23.7927 3.68298 25.8281 4.23036C26.4435 4.39741 27.0042 4.72303 27.4542 5.17468C27.9043 5.62633 28.2279 6.18819 28.3928 6.80411C28.5759 7.49286 28.7046 8.40454 28.7916 9.34523L28.8097 9.53373L28.8496 10.005L28.8641 10.1935C28.9819 11.8501 28.9964 13.4016 28.9982 13.7405V13.8765C28.9964 14.2281 28.9801 15.8847 28.8496 17.6102L28.8351 17.8005L28.8187 17.989C28.7281 19.0258 28.594 20.0553 28.3928 20.8129C28.2284 21.4291 27.905 21.9912 27.4548 22.4429C27.0047 22.8947 26.4437 23.2201 25.8281 23.3867C23.7256 23.9522 15.7343 23.992 14.6269 23.9939H14.3695C13.8094 23.9939 11.4931 23.983 9.06431 23.8996L8.75619 23.8887L8.5985 23.8815L8.28856 23.8688L7.97862 23.8561C5.96675 23.7673 4.05094 23.6241 3.16825 23.3849C2.55289 23.2185 1.99206 22.8933 1.54194 22.4419C1.09182 21.9905 0.768222 21.4288 0.603563 20.8129C0.402375 20.0571 0.26825 19.0258 0.177625 17.989L0.163125 17.7987L0.148625 17.6102C0.0591738 16.3821 0.00960601 15.1513 0 13.92L0 13.697C0.003625 13.3074 0.018125 11.9607 0.116 10.4744L0.128688 10.2877L0.134125 10.1935L0.148625 10.005L0.1885 9.53373L0.206625 9.34523C0.293625 8.40454 0.422312 7.49104 0.605375 6.80411C0.769757 6.18794 1.09323 5.62582 1.54337 5.17409C1.9935 4.72237 2.55448 4.39691 3.17006 4.23036C4.05275 3.99473 5.96856 3.84973 7.98044 3.75911L8.28856 3.74642L8.60031 3.73554L8.75619 3.73011L9.06612 3.71742C10.7911 3.66191 12.5168 3.63109 14.2426 3.62498H14.5924V3.62317ZM11.6 9.44129V18.1739L19.1346 13.8094L11.6 9.44129Z" fill="white"/>
</g>
<defs>
<clipPath id="clip0_1_136">
<rect width="29" height="29" fill="white"/>
</clipPath>
</defs>
</svg>
